<svg version="1.0" xmlns="http://www.w3.org/2000/svg"
 width="600.000000pt" height="70.000000pt" viewBox="0 0 600.000000 70.000000"
 preserveAspectRatio="xMidYMid meet">

<g transform="translate(0.000000,70.000000) scale(0.100000,-0.100000)"
fill="#E32227" stroke="none">
<path d="M285 684 c-22 -8 -54 -29 -73 -46 -35 -35 -41 -53 -142 -403 -28 -99
-55 -192 -60 -207 l-9 -28 627 0 c586 0 630 2 667 19 67 30 102 73 125 154 12
40 35 117 51 172 64 214 99 337 99 347 0 4 -280 8 -622 7 -520 0 -630 -3 -663
-15z m367 -103 c74 -8 112 -32 121 -78 13 -67 -50 -159 -128 -189 l-45 -17 43
-78 c46 -87 44 -99 -19 -99 -37 0 -58 21 -99 99 l-30 56 -62 3 c-67 3 -70 6
-51 46 18 40 53 57 131 63 90 6 134 19 147 43 25 46 -10 60 -150 60 l-87 0
-49 -137 c-27 -76 -58 -151 -69 -167 -24 -36 -77 -69 -103 -64 -16 3 -11 24
54 207 40 114 81 213 93 224 32 32 161 44 303 28z m639 -16 c40 -21 59 -53 59
-100 0 -118 -121 -185 -332 -185 -71 0 -75 3 -57 43 17 38 60 56 160 67 99 11
132 28 127 64 -4 26 -35 33 -149 35 -59 1 -90 -3 -96 -11 -5 -7 -33 -76 -62
-153 -55 -149 -62 -161 -101 -188 -20 -14 -70 -24 -70 -14 0 10 122 364 135
390 30 63 81 78 244 71 71 -3 125 -10 142 -19z"/>
<path d="M4252 529 c-108 -96 -144 -145 -161 -220 -12 -52 5 -127 37 -164 44
-52 83 -69 157 -69 105 0 186 51 238 149 32 61 30 159 -4 211 -28 42 -146 178
-157 181 -4 1 -53 -39 -110 -88z m214 -102 c87 -122 -15 -297 -173 -297 -50 0
-87 16 -122 54 -33 35 -41 127 -16 180 10 20 58 73 107 117 l90 81 44 -49 c24
-26 55 -65 70 -86z"/>
<path d="M4207 368 c-31 -48 -35 -102 -11 -136 32 -47 67 -16 40 37 -19 35
-21 84 -5 113 20 37 3 27 -24 -14z"/>
<path d="M1675 508 c-2 -7 -23 -78 -45 -158 -23 -80 -43 -151 -45 -157 -3 -9
10 -13 45 -13 33 0 50 4 50 13 0 6 5 29 11 50 9 33 14 38 36 35 20 -2 29 -13
42 -48 16 -45 17 -45 69 -48 28 -2 52 1 52 5 0 4 -9 32 -20 60 l-20 53 29 15
c80 41 105 157 40 190 -37 20 -237 21 -244 3z m183 -94 c4 -31 -32 -57 -81
-58 -40 -1 -42 0 -40 28 4 53 9 57 65 54 45 -3 53 -6 56 -24z"/>
<path d="M2010 478 c-24 -89 -80 -280 -86 -289 -3 -5 56 -9 139 -9 142 0 145
0 151 23 15 56 13 57 -84 57 -49 0 -90 2 -90 4 0 3 4 16 10 30 9 25 12 26 95
26 61 0 85 3 85 13 0 6 3 22 6 35 6 21 4 22 -75 22 -80 0 -87 3 -75 34 5 13
24 16 99 16 90 0 93 1 99 24 3 13 9 31 12 40 5 14 -10 16 -135 16 l-140 0 -11
-42z"/>
<path d="M2321 453 c-11 -38 -33 -113 -49 -168 l-29 -100 86 -3 c112 -4 160
10 222 65 61 56 89 131 70 194 -18 59 -65 79 -185 79 l-95 0 -20 -67z m190
-34 c31 -31 20 -84 -26 -126 -28 -27 -43 -33 -80 -33 -25 0 -45 1 -45 3 0 4
40 150 45 165 7 21 82 15 106 -9z"/>
<path d="M2870 515 c0 -3 -20 -75 -45 -162 -25 -86 -45 -160 -45 -165 0 -4 20
-8 44 -8 l45 0 13 48 c12 41 17 47 43 50 96 8 118 15 154 47 44 40 66 100 52
138 -18 47 -46 57 -158 57 -57 0 -103 -2 -103 -5z m154 -81 c19 -18 19 -19 5
-47 -17 -31 -28 -37 -73 -37 -36 0 -38 2 -32 25 16 62 25 75 55 75 16 0 37 -7
45 -16z"/>
<path d="M3180 478 c-7 -24 -27 -96 -46 -161 -19 -66 -34 -123 -34 -128 0 -5
62 -9 139 -9 135 0 139 1 145 23 15 56 13 57 -84 57 -49 0 -90 2 -90 4 0 3 4
16 10 30 9 25 13 26 94 26 78 0 84 1 90 23 12 46 10 47 -74 47 -79 0 -86 3
-74 34 5 13 24 16 99 16 90 0 93 1 99 24 3 13 9 31 12 40 5 14 -10 16 -135 16
l-140 0 -11 -42z"/>
<path d="M3486 503 c-2 -10 -7 -28 -11 -40 -6 -22 -3 -23 44 -23 28 0 51 -2
51 -4 0 -3 -16 -60 -35 -127 -19 -68 -35 -125 -35 -127 0 -2 21 -2 47 0 l47 3
36 127 35 128 52 0 c57 0 58 1 68 48 l7 32 -151 0 c-134 0 -150 -2 -155 -17z"/>
<path d="M3780 368 c-24 -84 -45 -161 -48 -170 -4 -15 3 -18 42 -18 l45 0 14
48 c11 38 19 48 38 50 21 3 27 -4 43 -48 l18 -50 55 0 c40 0 54 3 50 13 -3 6
-13 32 -23 56 -17 43 -17 44 2 57 85 58 112 150 58 193 -23 18 -41 21 -139 21
l-112 0 -43 -152z m218 60 c26 -33 -24 -78 -88 -78 -37 0 -42 9 -28 53 11 36
13 37 58 37 26 0 52 -6 58 -12z"/>
<path d="M4610 363 c-25 -87 -46 -163 -48 -170 -3 -10 27 -13 127 -13 71 0
132 3 134 8 3 4 8 22 12 40 l7 32 -81 0 c-62 0 -81 3 -81 14 0 11 49 187 65
234 3 8 -9 12 -43 12 l-48 0 -44 -157z"/>
<path d="M4901 362 c-24 -86 -46 -163 -48 -169 -4 -10 27 -13 135 -13 l140 0
11 31 c6 18 11 36 11 40 0 5 -40 9 -90 9 -49 0 -90 3 -90 8 0 4 3 17 6 30 6
21 12 22 90 22 88 0 88 0 98 43 l6 27 -83 0 -84 0 5 25 c4 25 6 25 98 25 92 0
95 1 104 26 21 54 21 54 -127 54 l-138 0 -44 -158z"/>
<path d="M5255 508 c-32 -99 -65 -242 -60 -261 27 -105 230 -98 298 10 19 30
87 232 87 258 0 4 -21 5 -46 3 l-46 -3 -33 -108 c-38 -126 -53 -147 -106 -147
-60 0 -64 19 -29 141 17 57 30 107 30 111 0 14 -90 9 -95 -4z"/>
<path d="M5627 513 c-3 -5 -24 -75 -47 -158 -24 -82 -45 -156 -47 -162 -4 -9
8 -13 40 -13 l46 0 26 88 c25 80 45 123 45 94 0 -6 9 -36 20 -65 l21 -55 61
64 c34 35 63 63 64 61 2 -1 -8 -40 -22 -87 -13 -46 -24 -88 -24 -92 0 -4 20
-8 45 -8 25 0 45 1 45 3 0 1 22 78 49 170 l48 167 -51 0 c-50 0 -52 -1 -112
-67 l-61 -67 -22 67 -23 67 -48 0 c-27 0 -51 -3 -53 -7z"/>
</g>
</svg>
